<?xml version="1.0" encoding="UTF-8" standalone="no"?>
<!DOCTYPE svg PUBLIC "-//W3C//DTD SVG 1.1//EN" "http://www.w3.org/Graphics/SVG/1.1/DTD/svg11.dtd">
<svg width="100%" height="100%" viewBox="0 0 128 128" version="1.1" xmlns="http://www.w3.org/2000/svg" xmlns:xlink="http://www.w3.org/1999/xlink" xml:space="preserve" xmlns:serif="http://www.serif.com/" style="fill-rule:evenodd;clip-rule:evenodd;stroke-linejoin:round;stroke-miterlimit:2;">
    <g transform="matrix(124.066,0,0,124.066,3.93422,108.568)">
        <path d="M0.399,-0.865C0.205,-0.827 0.048,-0.671 0.01,-0.478C-0.062,-0.112 0.267,0.16 0.516,0.121C0.596,0.109 0.636,0.015 0.599,-0.058C0.554,-0.146 0.618,-0.25 0.718,-0.25L0.873,-0.25C0.943,-0.25 1,-0.308 1,-0.378C0.999,-0.685 0.719,-0.928 0.399,-0.865ZM0.188,-0.25C0.153,-0.25 0.125,-0.278 0.125,-0.313C0.125,-0.347 0.153,-0.375 0.188,-0.375C0.222,-0.375 0.25,-0.347 0.25,-0.313C0.25,-0.278 0.222,-0.25 0.188,-0.25ZM0.25,-0.5C0.215,-0.5 0.188,-0.528 0.188,-0.563C0.188,-0.597 0.215,-0.625 0.25,-0.625C0.285,-0.625 0.313,-0.597 0.313,-0.563C0.313,-0.528 0.285,-0.5 0.25,-0.5ZM0.5,-0.625C0.465,-0.625 0.438,-0.653 0.438,-0.688C0.438,-0.722 0.465,-0.75 0.5,-0.75C0.535,-0.75 0.563,-0.722 0.563,-0.688C0.563,-0.653 0.535,-0.625 0.5,-0.625ZM0.75,-0.5C0.715,-0.5 0.688,-0.528 0.688,-0.563C0.688,-0.597 0.715,-0.625 0.75,-0.625C0.785,-0.625 0.813,-0.597 0.813,-0.563C0.813,-0.528 0.785,-0.5 0.75,-0.5Z" style="fill:rgb(255,152,0);fill-rule:nonzero;"/>
    </g>
    <g transform="matrix(127.984,0,0,127.984,-0.00886245,111.986)">
        <path d="M0.5,-0.875C0.467,-0.875 0.433,-0.872 0.399,-0.865C0.205,-0.827 0.048,-0.671 0.01,-0.478C-0.057,-0.136 0.227,0.125 0.468,0.125C0.484,0.125 0.5,0.124 0.516,0.121C0.596,0.109 0.636,0.015 0.599,-0.058C0.554,-0.146 0.618,-0.25 0.718,-0.25L0.873,-0.25C0.943,-0.25 1,-0.308 1,-0.378C0.999,-0.653 0.776,-0.875 0.5,-0.875ZM0.873,-0.313L0.718,-0.313C0.649,-0.313 0.586,-0.278 0.55,-0.219C0.515,-0.161 0.512,-0.09 0.543,-0.029C0.553,-0.011 0.552,0.013 0.543,0.032C0.538,0.041 0.527,0.056 0.506,0.06C0.494,0.062 0.481,0.063 0.468,0.063C0.361,0.063 0.245,0.002 0.164,-0.097C0.078,-0.201 0.045,-0.332 0.071,-0.465C0.105,-0.634 0.241,-0.77 0.411,-0.804C0.441,-0.809 0.471,-0.812 0.5,-0.812C0.74,-0.812 0.937,-0.617 0.938,-0.378C0.938,-0.342 0.909,-0.313 0.873,-0.313Z" style="fill-rule:nonzero;"/>
    </g>
    <g transform="matrix(124.066,0,0,124.066,3.91008,108.557)">
        <path d="M0.5,-0.875C0.467,-0.875 0.433,-0.872 0.399,-0.865C0.205,-0.827 0.048,-0.671 0.01,-0.478C-0.057,-0.136 0.227,0.125 0.468,0.125C0.484,0.125 0.5,0.124 0.516,0.121C0.596,0.109 0.636,0.015 0.599,-0.058C0.554,-0.146 0.618,-0.25 0.718,-0.25L0.873,-0.25C0.943,-0.25 1,-0.308 1,-0.378C0.999,-0.653 0.776,-0.875 0.5,-0.875ZM0.873,-0.313L0.718,-0.313C0.649,-0.313 0.586,-0.278 0.55,-0.219C0.515,-0.161 0.512,-0.09 0.543,-0.029C0.553,-0.011 0.552,0.013 0.543,0.032C0.538,0.041 0.527,0.056 0.506,0.06C0.494,0.062 0.481,0.063 0.468,0.063C0.361,0.063 0.245,0.002 0.164,-0.097C0.078,-0.201 0.045,-0.332 0.071,-0.465C0.105,-0.634 0.241,-0.77 0.411,-0.804C0.441,-0.809 0.471,-0.812 0.5,-0.812C0.74,-0.812 0.937,-0.617 0.938,-0.378C0.938,-0.342 0.909,-0.313 0.873,-0.313Z" style="fill:rgb(103,58,183);fill-rule:nonzero;"/>
    </g>
    <g transform="matrix(127.984,0,0,127.984,1.1269,110.85)">
        <path d="M0.203,-0.368C0.177,-0.368 0.156,-0.347 0.156,-0.321C0.156,-0.295 0.177,-0.274 0.203,-0.274C0.229,-0.274 0.25,-0.295 0.25,-0.321C0.25,-0.347 0.229,-0.368 0.203,-0.368ZM0.263,-0.61C0.237,-0.61 0.217,-0.589 0.217,-0.563C0.217,-0.537 0.237,-0.516 0.263,-0.516C0.289,-0.516 0.31,-0.537 0.31,-0.563C0.31,-0.589 0.289,-0.61 0.263,-0.61ZM0.75,-0.61C0.724,-0.61 0.703,-0.589 0.703,-0.563C0.703,-0.537 0.724,-0.516 0.75,-0.516C0.776,-0.516 0.797,-0.537 0.797,-0.563C0.797,-0.589 0.776,-0.61 0.75,-0.61ZM0.506,-0.731C0.48,-0.731 0.459,-0.71 0.459,-0.684C0.459,-0.658 0.48,-0.637 0.506,-0.637C0.532,-0.637 0.553,-0.658 0.553,-0.684C0.553,-0.71 0.532,-0.731 0.506,-0.731Z" style="fill-rule:nonzero;"/>
    </g>
    <g transform="matrix(125.412,0,0,125.412,3.17572,108.498)">
        <path d="M0.203,-0.368C0.177,-0.368 0.156,-0.347 0.156,-0.321C0.156,-0.295 0.177,-0.274 0.203,-0.274C0.229,-0.274 0.25,-0.295 0.25,-0.321C0.25,-0.347 0.229,-0.368 0.203,-0.368ZM0.263,-0.61C0.237,-0.61 0.217,-0.589 0.217,-0.563C0.217,-0.537 0.237,-0.516 0.263,-0.516C0.289,-0.516 0.31,-0.537 0.31,-0.563C0.31,-0.589 0.289,-0.61 0.263,-0.61ZM0.75,-0.61C0.724,-0.61 0.703,-0.589 0.703,-0.563C0.703,-0.537 0.724,-0.516 0.75,-0.516C0.776,-0.516 0.797,-0.537 0.797,-0.563C0.797,-0.589 0.776,-0.61 0.75,-0.61ZM0.506,-0.731C0.48,-0.731 0.459,-0.71 0.459,-0.684C0.459,-0.658 0.48,-0.637 0.506,-0.637C0.532,-0.637 0.553,-0.658 0.553,-0.684C0.553,-0.71 0.532,-0.731 0.506,-0.731Z" style="fill:rgb(103,58,183);fill-rule:nonzero;"/>
    </g>
</svg>
